<?xml version="1.0" encoding="UTF-8" standalone="no"?>
<!-- Created with Inkscape (http://www.inkscape.org/) -->

<svg
   xmlns:dc="http://purl.org/dc/elements/1.1/"
   xmlns:cc="http://creativecommons.org/ns#"
   xmlns:rdf="http://www.w3.org/1999/02/22-rdf-syntax-ns#"
   xmlns:svg="http://www.w3.org/2000/svg"
   xmlns="http://www.w3.org/2000/svg"
   xmlns:sodipodi="http://sodipodi.sourceforge.net/DTD/sodipodi-0.dtd"
   xmlns:inkscape="http://www.inkscape.org/namespaces/inkscape"
   width="1170"
   height="500"
   id="svg2"
   version="1.1"
   inkscape:version="0.48.4 r9939"
   sodipodi:docname="newsBanner.svg"
   inkscape:export-filename="/home/webmaster/Github/ccas-dinan/assets/images/elements/newsBanner.png"
   inkscape:export-xdpi="90"
   inkscape:export-ydpi="90">
  <defs
     id="defs4">
    <filter
       id="filter3981"
       inkscape:label="Inner Shadow"
       inkscape:menu="Shadows and Glows"
       inkscape:menu-tooltip="Adds a colorizable drop shadow inside"
       color-interpolation-filters="sRGB">
      <feGaussianBlur
         id="feGaussianBlur3983"
         stdDeviation="4"
         result="result8" />
      <feOffset
         id="feOffset3985"
         dx="4"
         dy="4"
         result="result11" />
      <feComposite
         id="feComposite3987"
         in2="result11"
         result="result6"
         in="SourceGraphic"
         operator="in" />
      <feFlood
         id="feFlood3989"
         result="result10"
         in="result6"
         flood-opacity="1"
         flood-color="rgb(0,0,0)" />
      <feBlend
         id="feBlend3991"
         in2="result10"
         mode="normal"
         in="result6"
         result="result12" />
      <feComposite
         id="feComposite3993"
         in2="SourceGraphic"
         result="result2"
         operator="in" />
    </filter>
  </defs>
  <sodipodi:namedview
     id="base"
     pagecolor="#ffffff"
     bordercolor="#666666"
     borderopacity="1.0"
     inkscape:pageopacity="0.0"
     inkscape:pageshadow="2"
     inkscape:zoom="0.98994949"
     inkscape:cx="245.82827"
     inkscape:cy="304.23768"
     inkscape:document-units="px"
     inkscape:current-layer="layer1"
     showgrid="false"
     inkscape:window-width="1859"
     inkscape:window-height="1056"
     inkscape:window-x="61"
     inkscape:window-y="24"
     inkscape:window-maximized="1" />
  <metadata
     id="metadata7">
    <rdf:RDF>
      <cc:Work
         rdf:about="">
        <dc:format>image/svg+xml</dc:format>
        <dc:type
           rdf:resource="http://purl.org/dc/dcmitype/StillImage" />
        <dc:title></dc:title>
      </cc:Work>
    </rdf:RDF>
  </metadata>
  <g
     inkscape:label="Calque 1"
     inkscape:groupmode="layer"
     id="layer1"
     transform="translate(0,-552.36218)">
    <rect
       style="fill:#c1c1c1;fill-rule:evenodd;stroke:none;stroke-width:1px;stroke-linecap:butt;stroke-linejoin:miter;stroke-opacity:1;fill-opacity:1"
       id="rect3063"
       width="1170"
       height="500"
       x="1.0101526"
       y="0.98464262"
       transform="translate(0,552.36218)" />
    <g
       id="g3038"
       transform="matrix(0.51856928,0,0,0.51856928,467.02419,684.3865)"
       style="fill:#4f4f4f;fill-opacity:1">
      <g
         id="g2986"
         style="fill:#4f4f4f;fill-opacity:1">
        <path
           id="path2988"
           d="m 446.158,267.615 c -5.622,-3.103 -12.756,-2.421 -19.574,1.871 l -125.947,79.309 c -3.505,2.208 -4.557,6.838 -2.35,10.343 2.208,3.505 6.838,4.557 10.343,2.35 l 125.947,-79.309 c 2.66,-1.675 4.116,-1.552 4.331,-1.432 0.218,0.12 1.096,1.285 1.096,4.428 0,8.449 -6.271,19.809 -13.42,24.311 l -122.099,76.885 c -6.492,4.088 -12.427,5.212 -16.284,3.084 -3.856,-2.129 -6.067,-7.75 -6.067,-15.423 0,-19.438 13.896,-44.61 30.345,-54.967 l 139.023,-87.542 c 2.181,-1.373 3.503,-3.77 3.503,-6.347 0,-2.577 -1.323,-4.974 -3.503,-6.347 L 184.368,50.615 c -2.442,-1.538 -5.551,-1.538 -7.993,0 L 35.66,139.223 C 15.664,151.815 0,180.188 0,203.818 v 4 c 0,23.63 15.664,52.004 35.66,64.595 l 209.292,131.791 c 3.505,2.207 8.136,1.154 10.343,-2.35 2.207,-3.505 1.155,-8.136 -2.35,-10.343 L 43.653,259.72 C 28.121,249.941 15,226.172 15,207.818 v -4 c 0,-18.354 13.121,-42.122 28.653,-51.902 L 180.371,65.825 433.43,225.175 304.486,306.371 c -20.945,13.189 -37.352,42.909 -37.352,67.661 0,13.495 4.907,23.636 13.818,28.555 3.579,1.976 7.526,2.956 11.709,2.956 6.231,0 12.985,-2.176 19.817,-6.479 l 122.099,-76.885 c 11.455,-7.213 20.427,-23.467 20.427,-37.004 0,-8.056 -3.224,-14.456 -8.846,-17.56 z"
           inkscape:connector-curvature="0"
           style="fill:#4f4f4f;fill-opacity:1" />
        <path
           id="path2990"
           d="m 353.664,232.676 c 2.492,0 4.928,-1.241 6.354,-3.504 2.207,-3.505 1.155,-8.136 -2.35,-10.343 l -173.3,-109.126 c -3.506,-2.207 -8.136,-1.154 -10.343,2.35 -2.207,3.505 -1.155,8.136 2.35,10.343 l 173.3,109.126 c 1.241,0.781 2.623,1.154 3.989,1.154 z"
           inkscape:connector-curvature="0"
           style="fill:#4f4f4f;fill-opacity:1" />
        <path
           id="path2992"
           d="m 323.68,252.58 c 2.497,0 4.938,-1.246 6.361,-3.517 2.201,-3.509 1.14,-8.138 -2.37,-10.338 L 254.46,192.82 c -3.511,-2.202 -8.139,-1.139 -10.338,2.37 -2.201,3.51 -1.14,8.138 2.37,10.338 l 73.211,45.905 c 1.238,0.777 2.615,1.147 3.977,1.147 z"
           inkscape:connector-curvature="0"
           style="fill:#4f4f4f;fill-opacity:1" />
        <path
           id="path2994"
           d="m 223.903,212.559 c -3.513,-2.194 -8.14,-1.124 -10.334,2.39 -2.194,3.514 -1.124,8.14 2.39,10.334 l 73.773,46.062 c 1.236,0.771 2.608,1.139 3.965,1.139 2.501,0 4.947,-1.251 6.369,-3.529 2.194,-3.514 1.124,-8.14 -2.39,-10.334 l -73.773,-46.062 z"
           inkscape:connector-curvature="0"
           style="fill:#4f4f4f;fill-opacity:1" />
        <path
           id="path2996"
           d="m 145.209,129.33 -62.33,39.254 c -2.187,1.377 -3.511,3.783 -3.503,6.368 0.008,2.585 1.345,4.983 3.54,6.348 l 74.335,46.219 c 1.213,0.754 2.586,1.131 3.96,1.131 1.417,0 2.833,-0.401 4.071,-1.201 l 16.556,-10.7 c 3.479,-2.249 4.476,-6.891 2.228,-10.37 -2.248,-3.479 -6.891,-4.475 -10.37,-2.228 l -12.562,8.119 -60.119,-37.38 48.2,-30.355 59.244,37.147 -6.907,4.464 c -3.479,2.249 -4.476,6.891 -2.228,10.37 2.249,3.479 6.894,4.476 10.37,2.228 l 16.8,-10.859 c 2.153,-1.392 3.446,-3.787 3.429,-6.351 -0.018,-2.563 -1.344,-4.94 -3.516,-6.302 l -73.218,-45.909 c -2.44,-1.531 -5.542,-1.528 -7.98,0.007 z"
           inkscape:connector-curvature="0"
           style="fill:#4f4f4f;fill-opacity:1" />
        <path
           id="path2998"
           d="m 270.089,288.846 c 2.187,-3.518 1.109,-8.142 -2.409,-10.329 l -74.337,-46.221 c -3.518,-2.188 -8.143,-1.109 -10.329,2.409 -2.187,3.518 -1.109,8.142 2.409,10.329 l 74.337,46.221 c 1.232,0.767 2.601,1.132 3.953,1.132 2.506,0 4.956,-1.256 6.376,-3.541 z"
           inkscape:connector-curvature="0"
           style="fill:#4f4f4f;fill-opacity:1" />
        <path
           id="path3000"
           d="m 53.527,192.864 c -2.187,3.518 -1.109,8.142 2.409,10.329 l 183.478,114.081 c 1.232,0.767 2.601,1.132 3.953,1.132 2.506,0 4.956,-1.256 6.376,-3.541 2.187,-3.518 1.109,-8.142 -2.409,-10.329 L 63.856,190.455 c -3.518,-2.189 -8.142,-1.109 -10.329,2.409 z"
           inkscape:connector-curvature="0"
           style="fill:#4f4f4f;fill-opacity:1" />
      </g>
      <g
         id="g3002"
         style="fill:#4f4f4f;fill-opacity:1" />
      <g
         id="g3004"
         style="fill:#4f4f4f;fill-opacity:1" />
      <g
         id="g3006"
         style="fill:#4f4f4f;fill-opacity:1" />
      <g
         id="g3008"
         style="fill:#4f4f4f;fill-opacity:1" />
      <g
         id="g3010"
         style="fill:#4f4f4f;fill-opacity:1" />
      <g
         id="g3012"
         style="fill:#4f4f4f;fill-opacity:1" />
      <g
         id="g3014"
         style="fill:#4f4f4f;fill-opacity:1" />
      <g
         id="g3016"
         style="fill:#4f4f4f;fill-opacity:1" />
      <g
         id="g3018"
         style="fill:#4f4f4f;fill-opacity:1" />
      <g
         id="g3020"
         style="fill:#4f4f4f;fill-opacity:1" />
      <g
         id="g3022"
         style="fill:#4f4f4f;fill-opacity:1" />
      <g
         id="g3024"
         style="fill:#4f4f4f;fill-opacity:1" />
      <g
         id="g3026"
         style="fill:#4f4f4f;fill-opacity:1" />
      <g
         id="g3028"
         style="fill:#4f4f4f;fill-opacity:1" />
      <g
         id="g3030"
         style="fill:#4f4f4f;fill-opacity:1" />
    </g>
    <g
       style="fill:#4f4f4f;fill-opacity:1;filter:url(#filter3981)"
       transform="matrix(0.51856928,0,0,0.51856928,467.02419,684.3865)"
       id="g3933">
      <g
         style="fill:#4f4f4f;fill-opacity:1"
         id="g3935">
        <path
           style="fill:#4f4f4f;fill-opacity:1"
           inkscape:connector-curvature="0"
           d="m 446.158,267.615 c -5.622,-3.103 -12.756,-2.421 -19.574,1.871 l -125.947,79.309 c -3.505,2.208 -4.557,6.838 -2.35,10.343 2.208,3.505 6.838,4.557 10.343,2.35 l 125.947,-79.309 c 2.66,-1.675 4.116,-1.552 4.331,-1.432 0.218,0.12 1.096,1.285 1.096,4.428 0,8.449 -6.271,19.809 -13.42,24.311 l -122.099,76.885 c -6.492,4.088 -12.427,5.212 -16.284,3.084 -3.856,-2.129 -6.067,-7.75 -6.067,-15.423 0,-19.438 13.896,-44.61 30.345,-54.967 l 139.023,-87.542 c 2.181,-1.373 3.503,-3.77 3.503,-6.347 0,-2.577 -1.323,-4.974 -3.503,-6.347 L 184.368,50.615 c -2.442,-1.538 -5.551,-1.538 -7.993,0 L 35.66,139.223 C 15.664,151.815 0,180.188 0,203.818 v 4 c 0,23.63 15.664,52.004 35.66,64.595 l 209.292,131.791 c 3.505,2.207 8.136,1.154 10.343,-2.35 2.207,-3.505 1.155,-8.136 -2.35,-10.343 L 43.653,259.72 C 28.121,249.941 15,226.172 15,207.818 v -4 c 0,-18.354 13.121,-42.122 28.653,-51.902 L 180.371,65.825 433.43,225.175 304.486,306.371 c -20.945,13.189 -37.352,42.909 -37.352,67.661 0,13.495 4.907,23.636 13.818,28.555 3.579,1.976 7.526,2.956 11.709,2.956 6.231,0 12.985,-2.176 19.817,-6.479 l 122.099,-76.885 c 11.455,-7.213 20.427,-23.467 20.427,-37.004 0,-8.056 -3.224,-14.456 -8.846,-17.56 z"
           id="path3937" />
        <path
           style="fill:#4f4f4f;fill-opacity:1"
           inkscape:connector-curvature="0"
           d="m 353.664,232.676 c 2.492,0 4.928,-1.241 6.354,-3.504 2.207,-3.505 1.155,-8.136 -2.35,-10.343 l -173.3,-109.126 c -3.506,-2.207 -8.136,-1.154 -10.343,2.35 -2.207,3.505 -1.155,8.136 2.35,10.343 l 173.3,109.126 c 1.241,0.781 2.623,1.154 3.989,1.154 z"
           id="path3939" />
        <path
           style="fill:#4f4f4f;fill-opacity:1"
           inkscape:connector-curvature="0"
           d="m 323.68,252.58 c 2.497,0 4.938,-1.246 6.361,-3.517 2.201,-3.509 1.14,-8.138 -2.37,-10.338 L 254.46,192.82 c -3.511,-2.202 -8.139,-1.139 -10.338,2.37 -2.201,3.51 -1.14,8.138 2.37,10.338 l 73.211,45.905 c 1.238,0.777 2.615,1.147 3.977,1.147 z"
           id="path3941" />
        <path
           style="fill:#4f4f4f;fill-opacity:1"
           inkscape:connector-curvature="0"
           d="m 223.903,212.559 c -3.513,-2.194 -8.14,-1.124 -10.334,2.39 -2.194,3.514 -1.124,8.14 2.39,10.334 l 73.773,46.062 c 1.236,0.771 2.608,1.139 3.965,1.139 2.501,0 4.947,-1.251 6.369,-3.529 2.194,-3.514 1.124,-8.14 -2.39,-10.334 l -73.773,-46.062 z"
           id="path3943" />
        <path
           style="fill:#4f4f4f;fill-opacity:1"
           inkscape:connector-curvature="0"
           d="m 145.209,129.33 -62.33,39.254 c -2.187,1.377 -3.511,3.783 -3.503,6.368 0.008,2.585 1.345,4.983 3.54,6.348 l 74.335,46.219 c 1.213,0.754 2.586,1.131 3.96,1.131 1.417,0 2.833,-0.401 4.071,-1.201 l 16.556,-10.7 c 3.479,-2.249 4.476,-6.891 2.228,-10.37 -2.248,-3.479 -6.891,-4.475 -10.37,-2.228 l -12.562,8.119 -60.119,-37.38 48.2,-30.355 59.244,37.147 -6.907,4.464 c -3.479,2.249 -4.476,6.891 -2.228,10.37 2.249,3.479 6.894,4.476 10.37,2.228 l 16.8,-10.859 c 2.153,-1.392 3.446,-3.787 3.429,-6.351 -0.018,-2.563 -1.344,-4.94 -3.516,-6.302 l -73.218,-45.909 c -2.44,-1.531 -5.542,-1.528 -7.98,0.007 z"
           id="path3945" />
        <path
           style="fill:#4f4f4f;fill-opacity:1"
           inkscape:connector-curvature="0"
           d="m 270.089,288.846 c 2.187,-3.518 1.109,-8.142 -2.409,-10.329 l -74.337,-46.221 c -3.518,-2.188 -8.143,-1.109 -10.329,2.409 -2.187,3.518 -1.109,8.142 2.409,10.329 l 74.337,46.221 c 1.232,0.767 2.601,1.132 3.953,1.132 2.506,0 4.956,-1.256 6.376,-3.541 z"
           id="path3947" />
        <path
           style="fill:#4f4f4f;fill-opacity:1"
           inkscape:connector-curvature="0"
           d="m 53.527,192.864 c -2.187,3.518 -1.109,8.142 2.409,10.329 l 183.478,114.081 c 1.232,0.767 2.601,1.132 3.953,1.132 2.506,0 4.956,-1.256 6.376,-3.541 2.187,-3.518 1.109,-8.142 -2.409,-10.329 L 63.856,190.455 c -3.518,-2.189 -8.142,-1.109 -10.329,2.409 z"
           id="path3949" />
      </g>
      <g
         style="fill:#4f4f4f;fill-opacity:1"
         id="g3951" />
      <g
         style="fill:#4f4f4f;fill-opacity:1"
         id="g3953" />
      <g
         style="fill:#4f4f4f;fill-opacity:1"
         id="g3955" />
      <g
         style="fill:#4f4f4f;fill-opacity:1"
         id="g3957" />
      <g
         style="fill:#4f4f4f;fill-opacity:1"
         id="g3959" />
      <g
         style="fill:#4f4f4f;fill-opacity:1"
         id="g3961" />
      <g
         style="fill:#4f4f4f;fill-opacity:1"
         id="g3963" />
      <g
         style="fill:#4f4f4f;fill-opacity:1"
         id="g3965" />
      <g
         style="fill:#4f4f4f;fill-opacity:1"
         id="g3967" />
      <g
         style="fill:#4f4f4f;fill-opacity:1"
         id="g3969" />
      <g
         style="fill:#4f4f4f;fill-opacity:1"
         id="g3971" />
      <g
         style="fill:#4f4f4f;fill-opacity:1"
         id="g3973" />
      <g
         style="fill:#4f4f4f;fill-opacity:1"
         id="g3975" />
      <g
         style="fill:#4f4f4f;fill-opacity:1"
         id="g3977" />
      <g
         style="fill:#4f4f4f;fill-opacity:1"
         id="g3979" />
    </g>
  </g>
</svg>
